<svg xmlns="http://www.w3.org/2000/svg" xmlns:xlink="http://www.w3.org/1999/xlink" width="500" zoomAndPan="magnify" viewBox="0 0 375 374.999991" height="500" preserveAspectRatio="xMidYMid meet" version="1.0"><defs><g/></defs><rect x="-37.5" width="450" fill="#ffffff" y="-37.499999" height="449.999989" fill-opacity="1"/><rect x="-37.5" width="450" fill="#003e92" y="-37.499999" height="449.999989" fill-opacity="1"/><g fill="#ffffff" fill-opacity="1"><g transform="translate(18.911032, 350.545316)"><g><path d="M 300.875 -352.359375 C 316.207031 -352.359375 328.867188 -352.859375 338.859375 -353.859375 L 338.859375 -343.859375 C 330.535156 -340.859375 322.375 -334.523438 314.375 -324.859375 C 306.375 -315.203125 299.207031 -301.710938 292.875 -284.390625 L 187.421875 1 C 183.753906 0.664062 177.925781 0.5 169.9375 0.5 C 162.269531 0.5 156.601562 0.664062 152.9375 1 L 25.484375 -311.875 C 21.160156 -322.863281 16.164062 -330.859375 10.5 -335.859375 C 4.832031 -340.859375 -0.664062 -343.523438 -6 -343.859375 L -6 -353.859375 C 13.988281 -352.859375 39.3125 -352.359375 69.96875 -352.359375 C 104.289062 -352.359375 129.613281 -352.859375 145.9375 -353.859375 L 145.9375 -343.859375 C 133.28125 -343.191406 124.285156 -341.691406 118.953125 -339.359375 C 113.617188 -337.023438 110.953125 -332.363281 110.953125 -325.375 C 110.953125 -319.707031 112.953125 -311.875 116.953125 -301.875 L 204.921875 -77.96875 L 266.390625 -243.90625 C 275.722656 -269.5625 280.390625 -289.882812 280.390625 -304.875 C 280.390625 -318.207031 276.804688 -327.867188 269.640625 -333.859375 C 262.472656 -339.859375 252.0625 -343.191406 238.40625 -343.859375 L 238.40625 -353.859375 C 261.0625 -352.859375 281.882812 -352.359375 300.875 -352.359375 Z M 300.875 -352.359375 "/></g></g></g><path fill="#003e92" d="M 0.0273438 121.433594 L 374.949219 121.433594 L 374.949219 240.644531 L 0.0273438 240.644531 L 0.0273438 121.433594 " fill-opacity="1" fill-rule="nonzero"/><g fill="#ffffff" fill-opacity="1"><g transform="translate(0.0255199, 219.414479)"><g><path d="M 36.574219 -69.386719 L 7.730469 -69.386719 C 6.839844 -69.386719 6.246094 -68.789062 6.246094 -67.898438 C 6.246094 -67.105469 6.839844 -66.609375 7.730469 -66.609375 L 11.597656 -66.609375 L 11.597656 -2.777344 L 6.839844 -2.777344 C 6.046875 -2.777344 5.453125 -2.28125 5.453125 -1.386719 C 5.453125 -0.496094 6.046875 0 6.839844 0 L 31.917969 0 C 32.710938 0 33.304688 -0.496094 33.304688 -1.386719 C 33.304688 -2.28125 32.710938 -2.777344 31.917969 -2.777344 L 27.058594 -2.777344 L 27.058594 -28.152344 L 36.574219 -28.152344 C 49.066406 -28.152344 56.300781 -36.378906 56.300781 -48.867188 C 56.300781 -61.160156 49.066406 -69.386719 36.574219 -69.386719 Z M 24.085938 -2.777344 L 14.570312 -2.777344 L 14.570312 -66.609375 L 24.085938 -66.609375 Z M 36.574219 -30.925781 L 27.058594 -30.925781 L 27.058594 -66.609375 L 36.574219 -66.609375 C 38.0625 -66.609375 39.449219 -66.511719 40.738281 -66.214844 L 40.738281 -31.324219 C 39.449219 -31.023438 38.0625 -30.925781 36.574219 -30.925781 Z M 43.714844 -32.214844 L 43.714844 -65.320312 C 49.957031 -62.84375 53.328125 -56.796875 53.328125 -48.867188 C 53.328125 -40.738281 49.957031 -34.691406 43.714844 -32.214844 Z M 43.714844 -32.214844 "/></g></g></g><g fill="#ffffff" fill-opacity="1"><g transform="translate(57.80195, 219.414479)"><g><path d="M 63.539062 -2.777344 L 59.078125 -2.777344 L 59.078125 -19.625 C 59.078125 -25.96875 54.914062 -31.324219 49.265625 -33.304688 C 55.308594 -36.476562 59.472656 -42.820312 59.472656 -50.355469 C 59.472656 -62.644531 51.34375 -69.386719 39.945312 -69.386719 L 7.433594 -69.386719 C 6.542969 -69.386719 6.046875 -68.988281 6.046875 -68.195312 C 6.046875 -67.304688 6.542969 -66.710938 7.433594 -66.710938 L 12.09375 -66.710938 L 12.09375 -2.777344 L 6.839844 -2.777344 C 6.046875 -2.777344 5.453125 -2.179688 5.453125 -1.386719 C 5.453125 -0.59375 6.046875 0 6.839844 0 L 30.628906 0 C 31.519531 0 32.015625 -0.59375 32.015625 -1.386719 C 32.015625 -2.179688 31.519531 -2.777344 30.628906 -2.777344 L 27.554688 -2.777344 L 27.554688 -31.324219 L 43.21875 -31.324219 L 43.21875 -1.488281 C 43.21875 -0.59375 43.8125 0 44.703125 0 L 63.539062 0 C 64.332031 0 65.023438 -0.496094 65.023438 -1.386719 C 65.023438 -2.179688 64.332031 -2.777344 63.539062 -2.777344 Z M 24.582031 -2.777344 L 15.066406 -2.777344 L 15.066406 -66.710938 L 24.582031 -66.710938 Z M 40.839844 -34.097656 L 27.554688 -34.097656 L 27.554688 -66.710938 L 39.945312 -66.710938 C 41.035156 -66.710938 42.128906 -66.609375 43.21875 -66.511719 L 43.21875 -34.296875 C 42.425781 -34.195312 41.632812 -34.097656 40.839844 -34.097656 Z M 56.5 -50.355469 C 56.5 -43.316406 52.238281 -37.367188 46.191406 -35.089844 L 46.191406 -65.816406 C 52.535156 -63.835938 56.5 -58.582031 56.5 -50.355469 Z M 46.191406 -2.777344 L 46.191406 -31.222656 C 51.742188 -30.429688 56.101562 -25.375 56.101562 -19.625 L 56.101562 -2.777344 Z M 46.191406 -2.777344 "/></g></g></g><g fill="#ffffff" fill-opacity="1"><g transform="translate(125.785864, 219.414479)"><g><path d="M 69.582031 -2.777344 L 65.519531 -2.777344 L 45.398438 -68.097656 C 45.101562 -68.988281 44.507812 -69.386719 43.714844 -69.386719 L 22.003906 -69.386719 C 21.3125 -69.386719 20.714844 -68.789062 20.714844 -67.996094 C 20.714844 -67.203125 21.3125 -66.609375 22.003906 -66.609375 L 27.753906 -66.609375 L 7.136719 -2.777344 L 1.585938 -2.777344 C 0.890625 -2.777344 0.296875 -2.082031 0.296875 -1.386719 C 0.296875 -0.59375 0.890625 0 1.585938 0 L 16.851562 0 C 17.542969 0 18.140625 -0.59375 18.140625 -1.386719 C 18.140625 -2.082031 17.542969 -2.777344 16.851562 -2.777344 L 10.210938 -2.777344 L 15.660156 -19.625 L 44.40625 -19.625 L 49.660156 -2.777344 L 44.109375 -2.777344 C 43.414062 -2.777344 42.820312 -2.082031 42.820312 -1.386719 C 42.820312 -0.59375 43.414062 0 44.109375 0 L 69.582031 0 C 70.277344 0 70.871094 -0.59375 70.871094 -1.386719 C 70.871094 -2.082031 70.277344 -2.777344 69.582031 -2.777344 Z M 52.734375 -2.777344 L 33.105469 -66.609375 L 42.820312 -66.609375 L 62.445312 -2.777344 Z M 43.613281 -22.402344 L 16.554688 -22.402344 L 30.429688 -65.125 Z M 43.613281 -22.402344 "/></g></g></g><g fill="#ffffff" fill-opacity="1"><g transform="translate(197.238355, 219.414479)"><g><path d="M 53.722656 -69.386719 L 1.785156 -69.386719 C 0.992188 -69.386719 0.296875 -68.789062 0.296875 -67.996094 L 0.296875 -55.804688 C 0.296875 -55.011719 0.992188 -54.320312 1.785156 -54.320312 C 2.675781 -54.320312 3.269531 -55.011719 3.269531 -55.804688 L 3.269531 -66.609375 L 19.824219 -66.609375 L 19.824219 -2.777344 L 14.371094 -2.777344 C 13.578125 -2.777344 12.886719 -2.179688 12.886719 -1.386719 C 12.886719 -0.59375 13.578125 0 14.371094 0 L 40.9375 0 C 41.632812 0 42.324219 -0.59375 42.324219 -1.386719 C 42.324219 -2.179688 41.632812 -2.777344 40.9375 -2.777344 L 35.289062 -2.777344 L 35.289062 -66.609375 L 52.238281 -66.609375 L 52.238281 -55.804688 C 52.238281 -55.011719 52.929688 -54.320312 53.722656 -54.320312 C 54.515625 -54.320312 55.210938 -55.011719 55.210938 -55.804688 L 55.210938 -67.996094 C 55.210938 -68.789062 54.515625 -69.386719 53.722656 -69.386719 Z M 32.3125 -66.609375 L 32.3125 -2.777344 L 22.796875 -2.777344 L 22.796875 -66.609375 Z M 32.3125 -66.609375 "/></g></g></g><g fill="#ffffff" fill-opacity="1"><g transform="translate(252.735441, 219.414479)"><g><path d="M 69.582031 -2.777344 L 65.519531 -2.777344 L 45.398438 -68.097656 C 45.101562 -68.988281 44.507812 -69.386719 43.714844 -69.386719 L 22.003906 -69.386719 C 21.3125 -69.386719 20.714844 -68.789062 20.714844 -67.996094 C 20.714844 -67.203125 21.3125 -66.609375 22.003906 -66.609375 L 27.753906 -66.609375 L 7.136719 -2.777344 L 1.585938 -2.777344 C 0.890625 -2.777344 0.296875 -2.082031 0.296875 -1.386719 C 0.296875 -0.59375 0.890625 0 1.585938 0 L 16.851562 0 C 17.542969 0 18.140625 -0.59375 18.140625 -1.386719 C 18.140625 -2.082031 17.542969 -2.777344 16.851562 -2.777344 L 10.210938 -2.777344 L 15.660156 -19.625 L 44.40625 -19.625 L 49.660156 -2.777344 L 44.109375 -2.777344 C 43.414062 -2.777344 42.820312 -2.082031 42.820312 -1.386719 C 42.820312 -0.59375 43.414062 0 44.109375 0 L 69.582031 0 C 70.277344 0 70.871094 -0.59375 70.871094 -1.386719 C 70.871094 -2.082031 70.277344 -2.777344 69.582031 -2.777344 Z M 52.734375 -2.777344 L 33.105469 -66.609375 L 42.820312 -66.609375 L 62.445312 -2.777344 Z M 43.613281 -22.402344 L 16.554688 -22.402344 L 30.429688 -65.125 Z M 43.613281 -22.402344 "/></g></g></g><g fill="#ffffff" fill-opacity="1"><g transform="translate(324.187931, 219.414479)"><g><path d="M 47.777344 -17.148438 C 47.777344 -21.113281 46.289062 -25.175781 42.921875 -28.84375 L 26.464844 -46.984375 L 26.464844 -65.519531 C 33.898438 -64.824219 40.539062 -59.671875 40.539062 -54.515625 L 40.539062 -52.136719 C 40.539062 -51.34375 41.136719 -50.75 42.027344 -50.75 C 42.921875 -50.75 43.515625 -51.34375 43.515625 -52.136719 L 43.515625 -69.582031 C 43.515625 -70.375 42.921875 -70.972656 42.027344 -70.972656 C 41.136719 -70.972656 40.539062 -70.375 40.539062 -69.582031 L 40.539062 -61.652344 C 37.367188 -65.320312 31.917969 -67.898438 26.464844 -68.296875 L 26.464844 -76.027344 C 26.464844 -76.820312 25.96875 -77.316406 25.175781 -77.316406 C 24.382812 -77.316406 23.886719 -76.820312 23.886719 -76.027344 L 23.886719 -68.394531 C 11.796875 -68.097656 4.660156 -61.652344 4.660156 -53.230469 C 4.660156 -48.769531 6.640625 -43.714844 11.101562 -38.855469 L 23.886719 -24.679688 L 23.886719 -1.785156 C 14.175781 -2.28125 5.949219 -8.027344 5.949219 -14.472656 L 5.949219 -17.347656 C 5.949219 -18.140625 5.351562 -18.734375 4.460938 -18.734375 C 3.570312 -18.734375 2.972656 -18.140625 2.972656 -17.347656 L 2.972656 0.0976562 C 2.972656 0.890625 3.570312 1.488281 4.460938 1.488281 C 5.351562 1.488281 5.949219 0.890625 5.949219 0.0976562 L 5.949219 -6.839844 C 9.8125 -2.28125 16.949219 0.59375 23.886719 0.992188 L 23.886719 8.226562 C 23.886719 9.019531 24.382812 9.515625 25.175781 9.515625 C 25.96875 9.515625 26.464844 9.019531 26.464844 8.226562 L 26.464844 0.992188 C 39.351562 0.496094 47.777344 -8.027344 47.777344 -17.148438 Z M 23.886719 -65.617188 L 23.886719 -49.757812 L 12.488281 -62.347656 C 15.265625 -64.230469 19.128906 -65.519531 23.886719 -65.617188 Z M 7.433594 -53.03125 C 7.433594 -55.804688 8.425781 -58.382812 10.308594 -60.464844 L 40.738281 -26.960938 C 43.515625 -23.886719 44.804688 -20.519531 44.804688 -17.246094 C 44.804688 -14.273438 43.8125 -11.398438 41.929688 -9.019531 L 13.28125 -40.738281 C 9.316406 -44.902344 7.433594 -49.164062 7.433594 -53.03125 Z M 26.464844 -1.785156 L 26.464844 -21.808594 L 39.945312 -6.9375 C 36.675781 -3.964844 32.117188 -2.082031 26.464844 -1.785156 Z M 26.464844 -1.785156 "/></g></g></g></svg>