<svg xmlns="http://www.w3.org/2000/svg" xmlns:xlink="http://www.w3.org/1999/xlink" width="500" zoomAndPan="magnify" viewBox="0 0 375 374.999991" height="500" preserveAspectRatio="xMidYMid meet" version="1.0"><defs><g/><clipPath id="3d5bfc8ced"><path d="M 37.5 153.203125 L 337.5 153.203125 L 337.5 219.953125 L 37.5 219.953125 Z M 37.5 153.203125 " clip-rule="nonzero"/></clipPath></defs><g fill="#ffffff" fill-opacity="1"><g transform="translate(43.709325, 328.955623)"><g><path d="M 259.078125 -303.40625 C 272.273438 -303.40625 283.175781 -303.832031 291.78125 -304.6875 L 291.78125 -296.09375 C 284.613281 -293.507812 277.585938 -288.054688 270.703125 -279.734375 C 263.816406 -271.410156 257.644531 -259.789062 252.1875 -244.875 L 161.390625 0.859375 C 158.234375 0.578125 153.210938 0.4375 146.328125 0.4375 C 139.722656 0.4375 134.84375 0.578125 131.6875 0.859375 L 21.953125 -268.546875 C 18.222656 -278.015625 13.914062 -284.898438 9.03125 -289.203125 C 4.15625 -293.503906 -0.578125 -295.800781 -5.171875 -296.09375 L -5.171875 -304.6875 C 12.046875 -303.832031 33.851562 -303.40625 60.25 -303.40625 C 89.800781 -303.40625 111.609375 -303.832031 125.671875 -304.6875 L 125.671875 -296.09375 C 114.765625 -295.507812 107.015625 -294.210938 102.421875 -292.203125 C 97.835938 -290.203125 95.546875 -286.1875 95.546875 -280.15625 C 95.546875 -275.28125 97.265625 -268.539062 100.703125 -259.9375 L 176.453125 -67.140625 L 229.375 -210.015625 C 237.414062 -232.109375 241.4375 -249.609375 241.4375 -262.515625 C 241.4375 -273.992188 238.347656 -282.3125 232.171875 -287.46875 C 226.003906 -292.632812 217.039062 -295.507812 205.28125 -296.09375 L 205.28125 -304.6875 C 224.789062 -303.832031 242.722656 -303.40625 259.078125 -303.40625 Z M 259.078125 -303.40625 "/></g></g></g><g clip-path="url(#3d5bfc8ced)"><path fill="#ffffff" d="M 37.984375 153.207031 L 187.5 153.210938 L 337.015625 153.210938 C 337.015625 175.460938 337.015625 197.710938 337.015625 219.960938 C 237.339844 219.960938 137.664062 219.960938 37.984375 219.960938 C 37.984375 197.710938 37.984375 175.460938 37.984375 153.207031 " fill-opacity="1" fill-rule="nonzero"/></g><g fill="#202020" fill-opacity="1"><g transform="translate(45.585939, 211.533898)"><g><path d="M 43.402344 -44.09375 L 33.636719 -44.09375 C 33.195312 -44.09375 32.757812 -43.78125 32.757812 -43.277344 C 32.757812 -42.773438 33.195312 -42.332031 33.636719 -42.332031 L 37.921875 -42.332031 L 26.707031 -13.667969 L 14.742188 -42.269531 L 17.324219 -42.269531 C 17.828125 -42.269531 18.203125 -42.707031 18.203125 -43.210938 C 18.203125 -43.652344 17.828125 -44.03125 17.324219 -44.03125 L 1.261719 -44.03125 C 0.691406 -44.03125 0.316406 -43.714844 0.316406 -43.210938 C 0.316406 -42.644531 0.691406 -42.269531 1.261719 -42.269531 L 3.78125 -42.269531 L 21.542969 0.378906 C 21.730469 0.757812 22.046875 0.945312 22.425781 0.945312 C 22.804688 0.945312 23.117188 0.757812 23.246094 0.378906 L 39.875 -42.332031 L 43.402344 -42.332031 C 43.96875 -42.332031 44.347656 -42.773438 44.347656 -43.277344 C 44.347656 -43.78125 43.96875 -44.09375 43.402344 -44.09375 Z M 43.402344 -44.09375 "/></g></g></g><g fill="#202020" fill-opacity="1"><g transform="translate(90.118651, 211.533898)"><g><path d="M 23.246094 -44.09375 L 4.914062 -44.09375 C 4.347656 -44.09375 3.96875 -43.714844 3.96875 -43.148438 C 3.96875 -42.644531 4.347656 -42.332031 4.914062 -42.332031 L 7.371094 -42.332031 L 7.371094 -1.765625 L 4.347656 -1.765625 C 3.84375 -1.765625 3.464844 -1.449219 3.464844 -0.882812 C 3.464844 -0.316406 3.84375 0 4.347656 0 L 20.285156 0 C 20.789062 0 21.164062 -0.316406 21.164062 -0.882812 C 21.164062 -1.449219 20.789062 -1.765625 20.285156 -1.765625 L 17.195312 -1.765625 L 17.195312 -17.890625 L 23.246094 -17.890625 C 31.179688 -17.890625 35.78125 -23.117188 35.78125 -31.054688 C 35.78125 -38.867188 31.179688 -44.09375 23.246094 -44.09375 Z M 23.246094 -19.652344 L 17.195312 -19.652344 L 17.195312 -42.332031 L 23.246094 -42.332031 C 24.1875 -42.332031 25.070312 -42.269531 25.890625 -42.078125 L 25.890625 -19.90625 C 25.070312 -19.714844 24.1875 -19.652344 23.246094 -19.652344 Z M 23.246094 -19.652344 "/></g></g></g><g fill="#202020" fill-opacity="1"><g transform="translate(126.840817, 211.533898)"><g><path d="M 40.378906 -1.765625 L 37.542969 -1.765625 L 37.542969 -12.472656 C 37.542969 -16.503906 34.898438 -19.90625 31.308594 -21.164062 C 35.148438 -23.179688 37.796875 -27.210938 37.796875 -32 C 37.796875 -39.8125 32.628906 -44.09375 25.386719 -44.09375 L 4.722656 -44.09375 C 4.15625 -44.09375 3.84375 -43.84375 3.84375 -43.339844 C 3.84375 -42.773438 4.15625 -42.394531 4.722656 -42.394531 L 7.683594 -42.394531 L 7.683594 -1.765625 L 4.347656 -1.765625 C 3.84375 -1.765625 3.464844 -1.386719 3.464844 -0.882812 C 3.464844 -0.378906 3.84375 0 4.347656 0 L 19.464844 0 C 20.03125 0 20.347656 -0.378906 20.347656 -0.882812 C 20.347656 -1.386719 20.03125 -1.765625 19.464844 -1.765625 L 17.511719 -1.765625 L 17.511719 -19.90625 L 27.464844 -19.90625 L 27.464844 -0.945312 C 27.464844 -0.378906 27.84375 0 28.410156 0 L 40.378906 0 C 40.882812 0 41.324219 -0.316406 41.324219 -0.882812 C 41.324219 -1.386719 40.882812 -1.765625 40.378906 -1.765625 Z M 25.953125 -21.667969 L 17.511719 -21.667969 L 17.511719 -42.394531 L 25.386719 -42.394531 C 26.078125 -42.394531 26.773438 -42.332031 27.464844 -42.269531 L 27.464844 -21.796875 C 26.960938 -21.730469 26.457031 -21.667969 25.953125 -21.667969 Z M 25.953125 -21.667969 "/></g></g></g><g fill="#202020" fill-opacity="1"><g transform="translate(170.050775, 211.533898)"><g><path d="M 44.222656 -1.765625 L 41.636719 -1.765625 L 28.851562 -43.277344 C 28.660156 -43.84375 28.285156 -44.09375 27.78125 -44.09375 L 13.984375 -44.09375 C 13.542969 -44.09375 13.164062 -43.714844 13.164062 -43.210938 C 13.164062 -42.707031 13.542969 -42.332031 13.984375 -42.332031 L 17.636719 -42.332031 L 4.535156 -1.765625 L 1.007812 -1.765625 C 0.566406 -1.765625 0.1875 -1.324219 0.1875 -0.882812 C 0.1875 -0.378906 0.566406 0 1.007812 0 L 10.707031 0 C 11.148438 0 11.527344 -0.378906 11.527344 -0.882812 C 11.527344 -1.324219 11.148438 -1.765625 10.707031 -1.765625 L 6.488281 -1.765625 L 9.953125 -12.472656 L 28.21875 -12.472656 L 31.558594 -1.765625 L 28.03125 -1.765625 C 27.589844 -1.765625 27.210938 -1.324219 27.210938 -0.882812 C 27.210938 -0.378906 27.589844 0 28.03125 0 L 44.222656 0 C 44.660156 0 45.039062 -0.378906 45.039062 -0.882812 C 45.039062 -1.324219 44.660156 -1.765625 44.222656 -1.765625 Z M 27.714844 -14.234375 L 10.519531 -14.234375 L 19.339844 -41.386719 Z M 27.714844 -14.234375 "/></g></g></g><g fill="#202020" fill-opacity="1"><g transform="translate(215.465323, 211.533898)"><g><path d="M 34.140625 -44.09375 L 1.132812 -44.09375 C 0.628906 -44.09375 0.1875 -43.714844 0.1875 -43.210938 L 0.1875 -35.464844 C 0.1875 -34.960938 0.628906 -34.519531 1.132812 -34.519531 C 1.699219 -34.519531 2.078125 -34.960938 2.078125 -35.464844 L 2.078125 -42.332031 L 12.597656 -42.332031 L 12.597656 -1.765625 L 9.132812 -1.765625 C 8.628906 -1.765625 8.1875 -1.386719 8.1875 -0.882812 C 8.1875 -0.378906 8.628906 0 9.132812 0 L 26.015625 0 C 26.457031 0 26.898438 -0.378906 26.898438 -0.882812 C 26.898438 -1.386719 26.457031 -1.765625 26.015625 -1.765625 L 22.425781 -1.765625 L 22.425781 -42.332031 L 33.195312 -42.332031 L 33.195312 -35.464844 C 33.195312 -34.960938 33.636719 -34.519531 34.140625 -34.519531 C 34.644531 -34.519531 35.085938 -34.960938 35.085938 -35.464844 L 35.085938 -43.210938 C 35.085938 -43.714844 34.644531 -44.09375 34.140625 -44.09375 Z M 34.140625 -44.09375 "/></g></g></g><g fill="#202020" fill-opacity="1"><g transform="translate(250.738758, 211.533898)"><g><path d="M 44.222656 -1.765625 L 41.636719 -1.765625 L 28.851562 -43.277344 C 28.660156 -43.84375 28.285156 -44.09375 27.78125 -44.09375 L 13.984375 -44.09375 C 13.542969 -44.09375 13.164062 -43.714844 13.164062 -43.210938 C 13.164062 -42.707031 13.542969 -42.332031 13.984375 -42.332031 L 17.636719 -42.332031 L 4.535156 -1.765625 L 1.007812 -1.765625 C 0.566406 -1.765625 0.1875 -1.324219 0.1875 -0.882812 C 0.1875 -0.378906 0.566406 0 1.007812 0 L 10.707031 0 C 11.148438 0 11.527344 -0.378906 11.527344 -0.882812 C 11.527344 -1.324219 11.148438 -1.765625 10.707031 -1.765625 L 6.488281 -1.765625 L 9.953125 -12.472656 L 28.21875 -12.472656 L 31.558594 -1.765625 L 28.03125 -1.765625 C 27.589844 -1.765625 27.210938 -1.324219 27.210938 -0.882812 C 27.210938 -0.378906 27.589844 0 28.03125 0 L 44.222656 0 C 44.660156 0 45.039062 -0.378906 45.039062 -0.882812 C 45.039062 -1.324219 44.660156 -1.765625 44.222656 -1.765625 Z M 27.714844 -14.234375 L 10.519531 -14.234375 L 19.339844 -41.386719 Z M 27.714844 -14.234375 "/></g></g></g><g fill="#202020" fill-opacity="1"><g transform="translate(296.153305, 211.533898)"><g><path d="M 28.09375 -18.332031 L 17.636719 -29.859375 L 17.636719 -41.636719 C 22.363281 -41.195312 26.582031 -37.921875 26.582031 -34.644531 L 26.582031 -33.132812 C 26.582031 -32.628906 26.960938 -32.253906 27.527344 -32.253906 C 28.09375 -32.253906 28.472656 -32.628906 28.472656 -33.132812 L 28.472656 -44.222656 C 28.472656 -44.726562 28.09375 -45.101562 27.527344 -45.101562 C 26.960938 -45.101562 26.582031 -44.726562 26.582031 -44.222656 L 26.582031 -39.179688 C 24.566406 -41.511719 21.101562 -43.148438 17.636719 -43.402344 L 17.636719 -48.316406 C 17.636719 -48.820312 17.324219 -49.132812 16.820312 -49.132812 C 16.316406 -49.132812 16 -48.820312 16 -48.316406 L 16 -43.464844 C 8.378906 -43.277344 3.78125 -39.117188 3.78125 -33.828125 C 3.78125 -30.992188 5.039062 -27.78125 7.875 -24.691406 L 16 -15.683594 L 16 -1.132812 C 9.828125 -1.449219 4.597656 -5.101562 4.597656 -9.195312 L 4.597656 -11.023438 C 4.597656 -11.527344 4.21875 -11.90625 3.652344 -11.90625 C 3.085938 -11.90625 2.707031 -11.527344 2.707031 -11.023438 L 2.707031 0.0625 C 2.707031 0.566406 3.085938 0.945312 3.652344 0.945312 C 4.21875 0.945312 4.597656 0.566406 4.597656 0.0625 L 4.597656 -4.347656 C 7.054688 -1.449219 11.589844 0.378906 16 0.628906 L 16 5.226562 C 16 5.730469 16.316406 6.046875 16.820312 6.046875 C 17.324219 6.046875 17.636719 5.730469 17.636719 5.226562 L 17.636719 0.628906 C 25.828125 0.316406 31.179688 -5.039062 31.179688 -10.960938 C 31.179688 -13.417969 30.238281 -16 28.09375 -18.332031 Z M 16 -41.699219 L 16 -31.621094 L 8.757812 -39.621094 C 10.519531 -40.820312 12.976562 -41.636719 16 -41.699219 Z M 17.636719 -1.132812 L 17.636719 -13.859375 L 26.203125 -4.410156 C 24.125 -2.519531 21.226562 -1.324219 17.636719 -1.132812 Z M 17.636719 -1.132812 "/></g></g></g></svg>